<?xml version="1.0" standalone="no"?>
<!DOCTYPE svg PUBLIC "-//W3C//DTD SVG 20010904//EN"
 "http://www.w3.org/TR/2001/REC-SVG-20010904/DTD/svg10.dtd">
<svg version="1.0" xmlns="http://www.w3.org/2000/svg"
 width="380.000000pt" height="380.000000pt" viewBox="0 0 380.000000 380.000000"
 preserveAspectRatio="xMidYMid meet">
<metadata>
Created by potrace 1.11, written by Peter Selinger 2001-2013
</metadata>
<g transform="translate(0.000000,380.000000) scale(0.100000,-0.100000)"
fill="#000000" stroke="none">
<path d="M2192 3771 c-92 -23 -227 -89 -297 -147 -58 -47 -65 -50 -65 -33 0 5
-11 27 -25 47 -14 20 -25 49 -25 65 0 15 -4 26 -9 23 -5 -3 -14 1 -21 9 -11
13 -63 15 -348 15 -318 0 -334 -1 -321 -17 8 -10 20 -29 28 -43 8 -14 50 -85
93 -158 l77 -133 -38 -77 c-64 -128 -110 -254 -122 -335 l-11 -76 -32 6 c-51
9 -176 70 -234 114 l-54 41 7 -53 c22 -161 122 -283 274 -334 l48 -16 6 -102
c4 -56 10 -137 13 -181 l7 -79 -27 18 c-35 23 -40 16 -21 -28 8 -19 18 -61 21
-92 l7 -56 -27 7 -27 6 22 -36 c12 -20 25 -52 29 -71 7 -32 5 -36 -52 -84 -44
-37 -68 -51 -91 -51 l-30 0 21 -23 c12 -13 22 -27 22 -31 0 -4 -20 -28 -43
-54 -52 -56 -147 -174 -147 -182 0 -3 18 -4 40 -2 39 4 50 -4 31 -24 -18 -17
-79 -148 -95 -203 -22 -75 -21 -84 8 -77 14 3 27 2 30 -2 3 -5 -6 -42 -19 -83
-12 -41 -26 -99 -30 -130 -6 -48 -11 -58 -37 -74 l-31 -18 23 -17 23 -17 -22
-106 c-27 -134 -27 -141 -2 -127 28 15 28 15 56 -40 50 -99 131 -166 227 -191
45 -11 47 -13 42 -38 -10 -39 -14 -42 -36 -35 -20 6 -20 5 -4 -17 21 -30 20
-39 -1 -39 -14 0 -15 -2 -4 -9 11 -7 4 -15 -27 -35 -44 -28 -75 -65 -70 -86 2
-9 -25 -18 -82 -29 -193 -38 -234 -70 -142 -109 91 -38 279 -69 582 -94 208
-17 1072 -17 1280 0 393 32 637 83 628 131 -5 24 -71 51 -182 74 -54 12 -94
23 -87 25 17 6 -25 59 -71 89 -28 19 -35 29 -26 34 10 7 8 9 -4 9 -22 0 -23 9
-2 39 16 22 16 23 -5 16 -22 -7 -24 -4 -35 47 -6 25 -3 28 31 33 67 11 123 36
154 68 23 26 31 29 38 18 12 -19 45 46 61 122 9 46 15 57 27 52 14 -5 15 7 9
102 -3 60 -13 151 -21 203 -18 118 -18 110 2 110 13 0 14 3 5 12 -18 18 -15
36 8 43 27 9 25 22 -5 29 -16 4 -32 21 -45 46 -18 35 -110 362 -110 390 0 5
11 10 23 10 35 0 40 11 14 29 -42 28 -81 65 -149 141 -36 41 -84 89 -107 105
l-41 30 0 111 c0 135 11 199 50 282 28 60 28 62 7 51 -12 -7 -26 -18 -30 -25
-20 -34 -27 -7 -27 101 0 75 4 115 11 115 26 0 160 71 198 105 54 49 109 161
118 240 l6 59 -39 -31 c-50 -39 -129 -86 -174 -102 -38 -14 -100 -30 -100 -27
0 2 9 29 20 61 19 56 36 89 76 150 l18 27 -31 -6 -30 -7 9 58 c9 64 33 142 55
186 8 16 12 32 9 35 -4 3 -38 8 -76 11 l-69 6 71 120 c90 154 108 185 108 190
0 3 -113 5 -250 5 -248 0 -251 0 -240 20 10 19 8 20 -32 19 -24 0 -76 -9 -116
-18z m-852 -488 c0 -19 -11 -43 -20 -43 -5 0 -12 21 -15 48 -4 26 -9 56 -11
67 -3 11 6 2 20 -20 14 -22 26 -45 26 -52z m418 -2768 c104 -21 251 -19 347 5
43 11 79 20 79 20 1 0 2 -8 3 -17 1 -10 17 -56 37 -103 20 -47 36 -92 36 -100
0 -13 -45 -15 -345 -15 -190 0 -345 0 -345 1 0 11 44 123 64 162 15 29 24 58
20 63 -4 7 0 9 12 5 11 -3 52 -12 92 -21z"/>
</g>
</svg>
